<svg width="46" height="47" viewBox="0 0 46 47" fill="none" xmlns="http://www.w3.org/2000/svg">
<path d="M0.000212765 23.0138C-0.00408079 24.0206 0.0566123 25.0266 0.181912 26.0256C0.749028 30.4673 2.6025 34.6458 5.51369 38.0455C8.42489 41.4453 12.2665 43.9176 16.5646 45.1575C18.5989 45.7414 20.7037 46.0424 22.8199 46.0521C24.4288 46.0596 26.0341 45.8987 27.6096 45.572C30.6124 44.9391 33.4583 43.7106 35.9793 41.9592C38.5004 40.2077 40.6456 37.9685 42.2885 35.3739C42.5 35.0399 42.7025 34.697 42.8991 34.354C43.8085 32.7377 44.5177 31.0163 45.011 29.2281C45.1778 28.6318 45.3089 28.0056 45.4399 27.3794C45.571 26.7532 45.6514 26.118 45.7169 25.4709C45.7944 24.7255 45.8341 23.971 45.8361 23.2077C45.8413 22.288 45.7906 21.3689 45.6842 20.4554C45.6127 19.8232 45.5134 19.2 45.3863 18.5857C44.4937 14.1543 42.3142 10.0853 39.1211 6.88869C35.928 3.69214 31.8634 1.5103 27.4368 0.616707C26.8232 0.491467 26.1977 0.393064 25.5662 0.318516C24.7179 0.219435 23.8646 0.168661 23.0105 0.166439C22.1918 0.161035 21.3734 0.200854 20.559 0.285715C19.9156 0.348335 19.2782 0.443756 18.6527 0.563033C18.0272 0.682309 17.4106 0.822459 16.8029 0.989446C15.0161 1.48299 13.2965 2.19401 11.6826 3.1066C11.3371 3.30043 10.9945 3.5032 10.6609 3.70298C6.98663 6.03859 4.04762 9.36743 2.18358 13.3047C1.41474 14.9296 0.841779 16.6404 0.476801 18.4008C0.163929 19.9186 0.00426351 21.4641 0.000212765 23.0138Z" fill="#167287"/>
<path opacity="0.1" d="M0.000212765 23.0138C-0.00408079 24.0206 0.0566123 25.0266 0.181912 26.0256C0.749028 30.4673 2.6025 34.6458 5.51369 38.0455C8.42489 41.4453 12.2665 43.9176 16.5646 45.1575C18.5989 45.7414 20.7037 46.0424 22.8199 46.0521C24.4288 46.0596 26.0341 45.8987 27.6096 45.572C30.6124 44.9391 33.4583 43.7106 35.9793 41.9592C38.5004 40.2077 40.6456 37.9685 42.2885 35.3739C42.5 35.0399 42.7025 34.697 42.8991 34.354C43.8085 32.7377 44.5177 31.0163 45.011 29.2281C45.1778 28.6318 45.3089 28.0056 45.4399 27.3794C45.571 26.7532 45.6514 26.118 45.7169 25.4709C45.7944 24.7255 45.8341 23.971 45.8361 23.2077C45.8413 22.288 45.7906 21.3689 45.6842 20.4554C45.6127 19.8232 45.5134 19.2 45.3863 18.5857C44.4937 14.1543 42.3142 10.0853 39.1211 6.88869C35.928 3.69214 31.8634 1.5103 27.4368 0.616707C26.8232 0.491467 26.1977 0.393064 25.5662 0.318516C24.7179 0.219435 23.8646 0.168661 23.0105 0.166439C22.1918 0.161035 21.3734 0.200854 20.559 0.285715C19.9156 0.348335 19.2782 0.443756 18.6527 0.563033C18.0272 0.682309 17.4106 0.822459 16.8029 0.989446C15.0161 1.48299 13.2965 2.19401 11.6826 3.1066C11.3371 3.30043 10.9945 3.5032 10.6609 3.70298C6.98663 6.03859 4.04762 9.36743 2.18358 13.3047C1.41474 14.9296 0.841779 16.6404 0.476801 18.4008C0.163929 19.9186 0.00426351 21.4641 0.000212765 23.0138Z" fill="white"/>
<path opacity="0.05" d="M44.9396 16.7518C45.1124 17.3482 45.2643 17.9685 45.3894 18.5947C45.5145 19.2209 45.6128 19.8321 45.6873 20.4643C45.7936 21.3778 45.8444 22.2969 45.8392 23.2166C45.8392 23.98 45.7995 24.7344 45.72 25.4799C45.6545 26.128 45.5622 26.7641 45.443 27.3883C45.3239 28.0145 45.1809 28.6288 45.0141 29.2371C44.5185 31.0193 43.8083 32.7345 42.8992 34.3451C42.7026 34.688 42.5001 35.0309 42.2886 35.3649C40.2166 38.6537 37.3419 41.3598 33.9357 43.2281C30.5294 45.0963 26.7039 46.0652 22.82 46.0431C21.9838 46.0378 21.1485 45.987 20.3179 45.8911L44.9396 16.7518Z" fill="#010E11"/>
<path opacity="0.05" d="M44.5852 30.5999C44.1378 31.8969 43.5735 33.1505 42.8992 34.3451C42.7026 34.6881 42.5001 35.031 42.2886 35.3649C40.2067 38.6527 37.3258 41.3581 33.9155 43.2282L44.5852 30.5999Z" fill="#010E11"/>
<path opacity="0.15" d="M41.8058 10.1111C42.5436 11.1826 43.1874 12.316 43.73 13.4986L16.9219 45.253L16.5585 45.1546C15.4359 44.8253 14.3405 44.4096 13.282 43.9111L41.8058 10.1111Z" fill="white"/>
<path opacity="0.15" d="M33.0398 2.51917C34.2417 3.11441 35.3898 3.8128 36.4712 4.6065L6.95551 39.5605C5.99377 38.6242 5.11569 37.6054 4.3313 36.5159L33.0398 2.51917Z" fill="white"/>
<path opacity="0.15" d="M29.6916 1.18628C30.4005 1.40694 31.0956 1.65941 31.7767 1.94368L3.55372 35.3649C3.16054 34.7417 2.7882 34.1036 2.45459 33.4416L29.6916 1.18628Z" fill="white"/>
<path opacity="0.15" d="M0.0656738 21.4513C0.0954606 21.0279 0.14014 20.6074 0.190778 20.193C0.20865 20.0528 0.223543 19.9127 0.244394 19.7755C0.265245 19.6383 0.286096 19.4773 0.309925 19.3491C0.363541 19.0509 0.417158 18.7229 0.47971 18.4128C1.38513 14.072 3.53026 10.0878 6.65451 6.94433C7.86615 5.72121 9.21099 4.63797 10.6638 3.71492C10.9974 3.5032 11.34 3.30043 11.6855 3.11854C13.2994 2.20595 15.019 1.49493 16.8058 1.00138C17.0322 0.938761 17.2586 0.885086 17.488 0.82843L0.0656738 21.4513Z" fill="white"/>
<path d="M5.84131 23.1093C5.8407 27.4451 7.48616 31.6192 10.4444 34.7861C13.4027 37.953 17.4527 39.8761 21.7742 40.1658C22.1496 40.1896 22.5368 40.2046 22.921 40.2046C27.4114 40.1452 31.6978 38.3178 34.8522 35.118C38.0066 31.9182 39.7752 27.6034 39.7752 23.1078C39.7752 18.6121 38.0066 14.2974 34.8522 11.0976C31.6978 7.89774 27.4114 6.07035 22.921 6.01099C22.5368 6.01099 22.1496 6.01099 21.7742 6.04975C17.4527 6.34088 13.4031 8.26477 10.445 11.432C7.48695 14.5993 5.84135 18.7733 5.84131 23.1093Z" fill="#167287"/>
<path opacity="0.4" d="M5.84131 23.1093C5.8407 27.4451 7.48616 31.6192 10.4444 34.7861C13.4027 37.953 17.4527 39.8761 21.7742 40.1658C22.1496 40.1896 22.5368 40.2046 22.921 40.2046C27.4114 40.1452 31.6978 38.3178 34.8522 35.118C38.0066 31.9182 39.7752 27.6034 39.7752 23.1078C39.7752 18.6121 38.0066 14.2974 34.8522 11.0976C31.6978 7.89774 27.4114 6.07035 22.921 6.01099C22.5368 6.01099 22.1496 6.01099 21.7742 6.04975C17.4527 6.34088 13.4031 8.26477 10.445 11.432C7.48695 14.5993 5.84135 18.7733 5.84131 23.1093Z" fill="#010E11"/>
<path d="M6.60083 23.1093C6.60083 23.4075 6.60083 23.7056 6.62466 23.98C6.83686 27.9652 8.49935 31.7347 11.2982 34.5767C14.097 37.4187 17.8384 39.1364 21.8159 39.4054L22.0393 39.4203C22.3372 39.4203 22.6172 39.4442 22.9091 39.4442C26.9991 39.4521 30.9426 37.9203 33.957 35.1529C36.9714 32.3855 38.8363 28.5847 39.1816 24.5048C39.2233 24.0426 39.2412 23.5774 39.2412 23.1033C39.2412 22.6292 39.2263 22.2415 39.1935 21.8181C39.127 20.9403 38.9875 20.0695 38.7765 19.2149C38.0626 16.3148 36.5693 13.6656 34.4585 11.5546C32.3477 9.44363 29.6999 7.95134 26.8022 7.23953C25.9485 7.02833 25.0787 6.88869 24.2018 6.82206C23.7789 6.78926 23.3499 6.77435 22.918 6.77435C22.5516 6.77435 22.1853 6.77435 21.8248 6.81014C21.7236 6.81014 21.6223 6.81014 21.527 6.83399C19.1496 7.03297 16.8457 7.75597 14.7803 8.95115C12.2942 10.3824 10.2295 12.4453 8.7949 14.9313C7.36027 17.4172 6.6065 20.2383 6.60977 23.1093H6.60083Z" fill="#167287"/>
<path opacity="0.5" d="M6.60083 23.1093C6.60083 23.4075 6.60083 23.7056 6.62466 23.98C6.83686 27.9652 8.49935 31.7347 11.2982 34.5767C14.097 37.4187 17.8384 39.1364 21.8159 39.4054L22.0393 39.4203C22.3372 39.4203 22.6172 39.4442 22.9091 39.4442C26.9991 39.4521 30.9426 37.9203 33.957 35.1529C36.9714 32.3855 38.8363 28.5847 39.1816 24.5048C39.2233 24.0426 39.2412 23.5774 39.2412 23.1033C39.2412 22.6292 39.2263 22.2415 39.1935 21.8181C39.127 20.9403 38.9875 20.0695 38.7765 19.2149C38.0626 16.3148 36.5693 13.6656 34.4585 11.5546C32.3477 9.44363 29.6999 7.95134 26.8022 7.23953C25.9485 7.02833 25.0787 6.88869 24.2018 6.82206C23.7789 6.78926 23.3499 6.77435 22.918 6.77435C22.5516 6.77435 22.1853 6.77435 21.8248 6.81014C21.7236 6.81014 21.6223 6.81014 21.527 6.83399C19.1496 7.03297 16.8457 7.75597 14.7803 8.95115C12.2942 10.3824 10.2295 12.4453 8.7949 14.9313C7.36027 17.4172 6.6065 20.2383 6.60977 23.1093H6.60083Z" fill="#010E11"/>
<path d="M34.4158 34.6999C37.1688 31.9798 38.8592 28.3636 39.1816 24.5048C39.2233 24.0426 39.2442 23.5774 39.2442 23.1033C39.2442 22.6292 39.2263 22.2415 39.1936 21.8181C39.127 20.9403 38.9875 20.0695 38.7765 19.2149C38.0626 16.3148 36.5693 13.6656 34.4585 11.5546C32.3477 9.44363 29.6999 7.95134 26.8023 7.23953C25.9486 7.02833 25.0788 6.88869 24.2019 6.82206C23.7789 6.78926 23.35 6.77435 22.9181 6.77435C22.5517 6.77435 22.1853 6.77435 21.8249 6.81014C21.7236 6.81014 21.6223 6.81014 21.527 6.83399C19.1497 7.03297 16.8457 7.75597 14.7803 8.95115C14.0644 9.37089 13.3813 9.84439 12.737 10.3676C11.2119 11.881 10.0021 13.6824 9.17788 15.6675C8.35363 17.6526 7.93129 19.7817 7.93533 21.9314C7.93533 22.2296 7.93533 22.5129 7.96214 22.8021C8.17307 26.7878 9.83515 30.558 12.6342 33.4003C15.4333 36.2425 19.1754 37.9598 23.1534 38.2276H23.3738C23.6717 38.2425 23.9547 38.2514 24.2466 38.2514C27.9439 38.2551 31.5313 36.9925 34.4128 34.6731L34.4158 34.6999Z" fill="#167287"/>
<path opacity="0.25" d="M34.4158 34.6999C37.1688 31.9798 38.8592 28.3636 39.1816 24.5048C39.2233 24.0426 39.2442 23.5774 39.2442 23.1033C39.2442 22.6292 39.2263 22.2415 39.1936 21.8181C39.127 20.9403 38.9875 20.0695 38.7765 19.2149C38.0626 16.3148 36.5693 13.6656 34.4585 11.5546C32.3477 9.44363 29.6999 7.95134 26.8023 7.23953C25.9486 7.02833 25.0788 6.88869 24.2019 6.82206C23.7789 6.78926 23.35 6.77435 22.9181 6.77435C22.5517 6.77435 22.1853 6.77435 21.8249 6.81014C21.7236 6.81014 21.6223 6.81014 21.527 6.83399C19.1497 7.03297 16.8457 7.75597 14.7803 8.95115C14.0644 9.37089 13.3813 9.84439 12.737 10.3676C11.2119 11.881 10.0021 13.6824 9.17788 15.6675C8.35363 17.6526 7.93129 19.7817 7.93533 21.9314C7.93533 22.2296 7.93533 22.5129 7.96214 22.8021C8.17307 26.7878 9.83515 30.558 12.6342 33.4003C15.4333 36.2425 19.1754 37.9598 23.1534 38.2276H23.3738C23.6717 38.2425 23.9547 38.2514 24.2466 38.2514C27.9439 38.2551 31.5313 36.9925 34.4128 34.6731L34.4158 34.6999Z" fill="#010E11"/>
<path d="M11.6855 3.10661C21.5479 -2.00737 29.5576 0.652499 34.9192 3.84314C42.6638 9.04658 47.5488 17.7627 44.8769 29.2818V29.258C43.857 33.0893 41.8499 36.5854 39.0566 39.3965C41.9408 36.5768 44.0377 33.0507 45.1391 29.1685V29.1894C47.6024 19.6473 44.5046 12.0702 39.3366 6.72367C33.7992 1.61268 24.4164 -3.4357 11.6855 3.10661Z" fill="#F5F5F5"/>
<path d="M20.4638 11.0355L20.4459 13.2361C20.4459 13.2361 18.1851 12.8366 15.6085 14.8732C15.5013 14.9597 15.406 15.0432 15.3106 15.1267C14.7767 15.5895 14.3522 16.1654 14.0678 16.8126C13.7835 17.4598 13.6464 18.1622 13.6664 18.869C13.6452 19.5821 13.7841 20.2909 14.0728 20.9432C14.3615 21.5955 14.7926 22.1747 15.3345 22.6381C15.4209 22.7126 15.5221 22.7812 15.6085 22.8558L15.6353 22.8826L15.9332 23.0973C16.0232 23.1611 16.1166 23.2199 16.2132 23.2732C16.2507 23.2981 16.2895 23.321 16.3293 23.3418C16.4001 23.3908 16.4748 23.4336 16.5527 23.4701C17.2022 23.817 17.8797 24.1083 18.5782 24.3408C18.9208 24.46 19.2753 24.5674 19.6297 24.6658C20.1421 24.8119 20.6544 24.9461 21.1429 25.0713L21.7386 25.2175C23.1326 25.5544 24.1484 25.8287 24.7918 26.1925C25.1527 26.3565 25.4432 26.6441 25.6109 27.0036C25.6865 27.1933 25.7249 27.3958 25.7241 27.6C25.7241 28.4558 25.0122 29.1476 23.076 29.091C21.0148 29.0134 19.8561 28.1964 19.5791 26.938L13.9196 27.9996C14.7745 30.5938 17.077 32.2876 20.6901 32.9078V35.7436L25.3488 35.9165V33.0807C27.3058 32.9167 28.9232 32.383 30.0253 31.4854L30.0551 31.4616C30.6273 30.9916 31.0831 30.3955 31.3869 29.72C31.6908 29.0444 31.8344 28.3076 31.8066 27.5672C31.8244 23.8309 28.8606 22.498 25.6883 21.6272C22.7246 20.8311 20.0884 20.6343 20.0944 18.8183C20.0944 17.6851 21.131 17.214 22.6561 17.2677C25.0896 17.3542 26.0369 18.7914 26.2305 19.8351L32.1878 18.7527C32.0549 18.2176 31.8547 17.7016 31.5921 17.217C31.1417 16.4076 30.5157 15.7096 29.7602 15.1744C28.4377 14.2202 26.7577 13.6834 25.0718 13.421V10.5763L20.4608 10.3198L20.4638 11.0355Z" fill="#167287"/>
<path opacity="0.1" d="M20.4638 11.0355L20.4459 13.2361C20.4459 13.2361 18.1851 12.8366 15.6085 14.8732C15.5013 14.9597 15.406 15.0432 15.3106 15.1267C14.7767 15.5895 14.3522 16.1654 14.0678 16.8126C13.7835 17.4598 13.6464 18.1622 13.6664 18.869C13.6452 19.5821 13.7841 20.2909 14.0728 20.9432C14.3615 21.5955 14.7926 22.1747 15.3345 22.6381C15.4209 22.7126 15.5221 22.7812 15.6085 22.8558L15.6353 22.8826L15.9332 23.0973C16.0232 23.1611 16.1166 23.2199 16.2132 23.2732C16.2507 23.2981 16.2895 23.321 16.3293 23.3418C16.4001 23.3908 16.4748 23.4336 16.5527 23.4701C17.2022 23.817 17.8797 24.1083 18.5782 24.3408C18.9208 24.46 19.2753 24.5674 19.6297 24.6658C20.1421 24.8119 20.6544 24.9461 21.1429 25.0713L21.7386 25.2175C23.1326 25.5544 24.1484 25.8287 24.7918 26.1925C25.1527 26.3565 25.4432 26.6441 25.6109 27.0036C25.6865 27.1933 25.7249 27.3958 25.7241 27.6C25.7241 28.4558 25.0122 29.1476 23.076 29.091C21.0148 29.0134 19.8561 28.1964 19.5791 26.938L13.9196 27.9996C14.7745 30.5938 17.077 32.2876 20.6901 32.9078V35.7436L25.3488 35.9165V33.0807C27.3058 32.9167 28.9232 32.383 30.0253 31.4854L30.0551 31.4616C30.6273 30.9916 31.0831 30.3955 31.3869 29.72C31.6908 29.0444 31.8344 28.3076 31.8066 27.5672C31.8244 23.8309 28.8606 22.498 25.6883 21.6272C22.7246 20.8311 20.0884 20.6343 20.0944 18.8183C20.0944 17.6851 21.131 17.214 22.6561 17.2677C25.0896 17.3542 26.0369 18.7914 26.2305 19.8351L32.1878 18.7527C32.0549 18.2176 31.8547 17.7016 31.5921 17.217C31.1417 16.4076 30.5157 15.7096 29.7602 15.1744C28.4377 14.2202 26.7577 13.6834 25.0718 13.421V10.5763L20.4608 10.3198L20.4638 11.0355Z" fill="white"/>
<path d="M31.8066 27.5583C31.8006 26.2993 31.3209 25.0887 30.4632 24.1679C29.6351 23.2733 28.4556 22.6769 27.145 22.2117C25.8344 21.7466 24.4016 21.4305 22.9957 21.0637C22.3172 20.9012 21.6604 20.6589 21.0387 20.3421C20.7517 20.2034 20.5103 19.9853 20.343 19.7138C20.1757 19.4422 20.0894 19.1284 20.0944 18.8094C20.1153 19.4922 20.5591 19.9515 21.1459 20.2407C21.7844 20.5323 22.454 20.7504 23.1416 20.8908C24.5628 21.1796 25.9669 21.5469 27.3475 21.9911C28.6522 22.4712 29.8556 23.0884 30.6568 24.0247C31.0626 24.4879 31.3724 25.0271 31.5683 25.6111C31.7494 26.2436 31.8299 26.9008 31.8066 27.5583Z" fill="white"/>
<path d="M20.4727 10.3109L24.6398 10.8954L25.0688 13.4121L25.0836 10.5674L20.4727 10.3109Z" fill="#FAFAFA"/>
<path d="M20.69 32.8989L21.0802 35.4096L25.3427 35.9076L20.687 35.7347L20.69 32.8989Z" fill="#FAFAFA"/>
<path opacity="0.15" d="M13.9197 27.9906C14.0746 28.4463 14.2815 28.8825 14.5363 29.2908L16.1626 27.5702L13.9197 27.9906Z" fill="white"/>
<path opacity="0.15" d="M31.8004 27.436C31.8165 26.7483 31.6853 26.0651 31.4156 25.4325C31.1458 24.7998 30.7438 24.2323 30.2366 23.7682L20.6899 33.8889V35.7347L23.8682 35.8539L25.3575 34.2765V33.0837C25.7941 33.0469 26.2285 32.9882 26.6592 32.9078L31.8004 27.436Z" fill="white"/>
<path opacity="0.15" d="M13.6873 19.4355C13.7502 20.2281 14.0137 20.9916 14.4528 21.6541L24.9139 10.5554L22.1973 10.4063L20.4548 12.2551V13.2361C20.153 13.2017 19.8482 13.2017 19.5463 13.2361L13.6873 19.4355Z" fill="white"/>
<path opacity="0.15" d="M15.6293 22.8886L15.9272 23.1033C16.0172 23.1671 16.1106 23.2259 16.2072 23.2793C16.2447 23.3041 16.2835 23.327 16.3233 23.3478C16.3941 23.3968 16.4688 23.4397 16.5467 23.4761C17.1962 23.823 17.8737 24.1143 18.5722 24.3468C18.7301 24.4005 18.8939 24.4452 19.0548 24.4959L22.513 20.8311C21.0714 20.4226 20.0854 19.9186 20.0884 18.8094C20.0914 17.7001 21.125 17.2051 22.6501 17.2588C23.5385 17.2553 24.4045 17.5387 25.1194 18.0669L28.527 14.4528C27.4293 13.9374 26.2622 13.5858 25.0628 13.4091V12.3386L15.3523 22.6531C15.4357 22.7246 15.531 22.7932 15.6114 22.8618L15.6293 22.8886Z" fill="white"/>
</svg>
