<svg width="32" height="24" viewBox="0 0 32 24" fill="none" xmlns="http://www.w3.org/2000/svg">
<mask id="mask0_614_584" style="mask-type:luminance" maskUnits="userSpaceOnUse" x="0" y="0" width="32" height="24">
<rect width="32" height="24" fill="white"/>
</mask>
<g mask="url(#mask0_614_584)">
<path fill-rule="evenodd" clip-rule="evenodd" d="M0 0H32V24H0V0Z" fill="#F7FCFF"/>
<path fill-rule="evenodd" clip-rule="evenodd" d="M0 14.6667V16.6667H32V14.6667H0Z" fill="#E31D1C"/>
<path fill-rule="evenodd" clip-rule="evenodd" d="M0 18.3333V20.3333H32V18.3333H0Z" fill="#E31D1C"/>
<path fill-rule="evenodd" clip-rule="evenodd" d="M0 7.33331V9.33331H32V7.33331H0Z" fill="#E31D1C"/>
<path fill-rule="evenodd" clip-rule="evenodd" d="M0 22V24H32V22H0Z" fill="#E31D1C"/>
<path fill-rule="evenodd" clip-rule="evenodd" d="M0 11V13H32V11H0Z" fill="#E31D1C"/>
<path fill-rule="evenodd" clip-rule="evenodd" d="M0 0V2H32V0H0Z" fill="#E31D1C"/>
<path fill-rule="evenodd" clip-rule="evenodd" d="M0 3.66669V5.66669H32V3.66669H0Z" fill="#E31D1C"/>
<rect width="20" height="13" fill="#2E42A5"/>
<path fill-rule="evenodd" clip-rule="evenodd" d="M1.72221 2.93864L0.996331 3.44753L1.2414 2.54192L0.59668 1.96801H1.43877L1.7212 1.22894L2.05237 1.96801H2.77022L2.20619 2.54192L2.42455 3.44753L1.72221 2.93864ZM5.72221 2.93864L4.99633 3.44753L5.2414 2.54192L4.59668 1.96801H5.43877L5.7212 1.22894L6.05237 1.96801H6.77022L6.20619 2.54192L6.42455 3.44753L5.72221 2.93864ZM8.99633 3.44753L9.72221 2.93864L10.4245 3.44753L10.2062 2.54192L10.7702 1.96801H10.0524L9.7212 1.22894L9.43877 1.96801H8.59668L9.2414 2.54192L8.99633 3.44753ZM13.7222 2.93864L12.9963 3.44753L13.2414 2.54192L12.5967 1.96801H13.4388L13.7212 1.22894L14.0524 1.96801H14.7702L14.2062 2.54192L14.4245 3.44753L13.7222 2.93864ZM0.996331 7.44753L1.72221 6.93864L2.42455 7.44753L2.20619 6.54192L2.77022 5.96801H2.05237L1.7212 5.22894L1.43877 5.96801H0.59668L1.2414 6.54192L0.996331 7.44753ZM5.72221 6.93864L4.99633 7.44753L5.2414 6.54192L4.59668 5.96801H5.43877L5.7212 5.22894L6.05237 5.96801H6.77022L6.20619 6.54192L6.42455 7.44753L5.72221 6.93864ZM8.99633 7.44753L9.72221 6.93864L10.4245 7.44753L10.2062 6.54192L10.7702 5.96801H10.0524L9.7212 5.22894L9.43877 5.96801H8.59668L9.2414 6.54192L8.99633 7.44753ZM13.7222 6.93864L12.9963 7.44753L13.2414 6.54192L12.5967 5.96801H13.4388L13.7212 5.22894L14.0524 5.96801H14.7702L14.2062 6.54192L14.4245 7.44753L13.7222 6.93864ZM0.996331 11.4475L1.72221 10.9386L2.42455 11.4475L2.20619 10.5419L2.77022 9.96801H2.05237L1.7212 9.22894L1.43877 9.96801H0.59668L1.2414 10.5419L0.996331 11.4475ZM5.72221 10.9386L4.99633 11.4475L5.2414 10.5419L4.59668 9.96801H5.43877L5.7212 9.22894L6.05237 9.96801H6.77022L6.20619 10.5419L6.42455 11.4475L5.72221 10.9386ZM8.99633 11.4475L9.72221 10.9386L10.4245 11.4475L10.2062 10.5419L10.7702 9.96801H10.0524L9.7212 9.22894L9.43877 9.96801H8.59668L9.2414 10.5419L8.99633 11.4475ZM13.7222 10.9386L12.9963 11.4475L13.2414 10.5419L12.5967 9.96801H13.4388L13.7212 9.22894L14.0524 9.96801H14.7702L14.2062 10.5419L14.4245 11.4475L13.7222 10.9386ZM16.9963 3.44753L17.7222 2.93864L18.4245 3.44753L18.2062 2.54192L18.7702 1.96801H18.0524L17.7212 1.22894L17.4388 1.96801H16.5967L17.2414 2.54192L16.9963 3.44753ZM17.7222 6.93864L16.9963 7.44753L17.2414 6.54192L16.5967 5.96801H17.4388L17.7212 5.22894L18.0524 5.96801H18.7702L18.2062 6.54192L18.4245 7.44753L17.7222 6.93864ZM16.9963 11.4475L17.7222 10.9386L18.4245 11.4475L18.2062 10.5419L18.7702 9.96801H18.0524L17.7212 9.22894L17.4388 9.96801H16.5967L17.2414 10.5419L16.9963 11.4475ZM3.72221 4.93864L2.99633 5.44753L3.2414 4.54192L2.59668 3.96801H3.43877L3.7212 3.22894L4.05237 3.96801H4.77022L4.20619 4.54192L4.42455 5.44753L3.72221 4.93864ZM6.99633 5.44753L7.72221 4.93864L8.42455 5.44753L8.20619 4.54192L8.77022 3.96801H8.05237L7.7212 3.22894L7.43877 3.96801H6.59668L7.2414 4.54192L6.99633 5.44753ZM11.7222 4.93864L10.9963 5.44753L11.2414 4.54192L10.5967 3.96801H11.4388L11.7212 3.22894L12.0524 3.96801H12.7702L12.2062 4.54192L12.4245 5.44753L11.7222 4.93864ZM2.99633 9.44753L3.72221 8.93864L4.42455 9.44753L4.20619 8.54192L4.77022 7.96801H4.05237L3.7212 7.22894L3.43877 7.96801H2.59668L3.2414 8.54192L2.99633 9.44753ZM7.72221 8.93864L6.99633 9.44753L7.2414 8.54192L6.59668 7.96801H7.43877L7.7212 7.22894L8.05237 7.96801H8.77022L8.20619 8.54192L8.42455 9.44753L7.72221 8.93864ZM10.9963 9.44753L11.7222 8.93864L12.4245 9.44753L12.2062 8.54192L12.7702 7.96801H12.0524L11.7212 7.22894L11.4388 7.96801H10.5967L11.2414 8.54192L10.9963 9.44753ZM15.7222 4.93864L14.9963 5.44753L15.2414 4.54192L14.5967 3.96801H15.4388L15.7212 3.22894L16.0524 3.96801H16.7702L16.2062 4.54192L16.4245 5.44753L15.7222 4.93864ZM14.9963 9.44753L15.7222 8.93864L16.4245 9.44753L16.2062 8.54192L16.7702 7.96801H16.0524L15.7212 7.22894L15.4388 7.96801H14.5967L15.2414 8.54192L14.9963 9.44753Z" fill="#F7FCFF"/>
</g>
</svg>
